# xmcd CD database file
#
# Track frame offsets:
#	150
#	13888
#	32643
#	46403
#	61903
#	78040
#	94980
#	110100
#	126143
#	145606
#	167706
#	181486
#	202476
#	220248
#	233466
#	249796
#
# Disc length: 3581 seconds
#
# Revision: 0
# Processed by: cddbd v1.5.1PL0 Copyright (c) Steve Scherf et al.
# Submitted via: CDex 1.51
#
DISCID=db0dfb10
DTITLE=Tim McGraw - Greatest Hits
DYEAR=2000
DGENRE=Country
TTITLE0=Indian Outlaw
TTITLE1=Don't Take The Girl
TTITLE2=She Never Lets It Go To Her Heart
TTITLE3=I Like It, I Love It
TTITLE4=Just To See You Smile
TTITLE5=It's Your Love (With Faith Hill)
TTITLE6=Where The Green Grass Grows
TTITLE7=For A Little While
TTITLE8=Tonight I Wanna Cry
TTITLE9=Please Remember Me
TTITLE10=Something Like That
TTITLE11=My Best Friend
TTITLE12=Maybe We Should Just Sleep On It
TTITLE13=Down On the Farm
TTITLE14=My Next Thirty Years
TTITLE15=Let's Make Love (With Faith Hill)
EXTD=YEAR: 2000
EXTT0=
EXTT1=
EXTT2=
EXTT3=
EXTT4=
EXTT5=
EXTT6=
EXTT7=
EXTT8=
EXTT9=
EXTT10=
EXTT11=
EXTT12=
EXTT13=
EXTT14=
EXTT15=
PLAYORDER=
